# xmcd
#
# Track frame offsets: 
#        150
#        11323
#        24217
#        40557
#        56193
#        68427
#        83912
#        99413
#        115190
#        129735
#        142018
#        155500
#        170670
#        185713
#        196937
#        206923
#        217581
#        229696
#        242114
#        258438
#
# Disc length: 3827 seconds
#
# Revision: 0
# Processed by: cddbd v1.5.2PL0 Copyright (c) Steve Scherf et al.
# Submitted via: ExactAudioCopy v0.99pb4
#
DISCID=0f0ef114
DTITLE=Various Artist - Jazz Soul Blues [CD9-Soul Legends 1)
DYEAR=2009
DGENRE=Soul
TTITLE0=James Brown - Please, Please, Please
TTITLE1=Percy Sledge - When A Man Loves A Woman
TTITLE2=Nina Simone - My Baby Just Cares For Me
TTITLE3=Nat King Cole - Unforgettable
TTITLE4=King Curtis and The Noble Knights - Soul Twist
TTITLE5=Syl Johnson - I Hate I Walked Away
TTITLE6=Martha Reeves - I Say A Utile Prayer
TTITLE7=Screamin' Jay Hawkins - I Put A Spell On You
TTITLE8=Mary Wells - My Guy
TTITLE9=Lee Dorsey - Working In A Coalmine
TTITLE10=Jimmy Ruffin - I've Passed This Way Before
TTITLE11=The Delfonics - La La Means I Love You
TTITLE12=Peggy Lee - Fever
TTITLE13=Brook Benton - It's Just A Matter Of Time
TTITLE14=The Drifters - Save The Last Dance For Me
TTITLE15=Bobby Patterson - How Do You Spell Love?
TTITLE16=Aaron Neville - Tell It Like It Is
TTITLE17=Little Johnny Taylor - Keep On Keeping On
TTITLE18=Sam and Dave - Love The One You're With
TTITLE19=Ray Charles - What'd I Say (En Public)
EXTD=
EXTT0=
EXTT1=
EXTT2=
EXTT3=
EXTT4=
EXTT5=
EXTT6=
EXTT7=
EXTT8=
EXTT9=
EXTT10=
EXTT11=
EXTT12=
EXTT13=
EXTT14=
EXTT15=
EXTT16=
EXTT17=
EXTT18=
EXTT19=
PLAYORDER=
